<svg version="1.1" width="219.908" height="181.593" xmlns="http://www.w3.org/2000/svg" xmlns:xlink="http://www.w3.org/1999/xlink" overflow="hidden"><defs></defs><g id="SFixTitle"></g><g id="SContent"><g transform="matrix(1.33333,0,0,1.33333,0,0)"><g><g><g></g></g><g><g></g></g><g><g></g></g></g><g transform="matrix(1,0,0,1,-50.5052,-37.1441)"><defs><clipPath id="CLIP0"><path d=" M 50.0052 36.6441 L 216.005 36.6441 L 216.005 174.644 L 50.0052 174.644 Z"/></clipPath></defs><defs><clipPath id="CLIP1"><path d=" M 50.0052 35.6874 L 216.005 35.6874 L 216.005 175.687 L 50.0052 175.687 Z"/></clipPath></defs><defs><clipPath id="CLIP2"><path d=" M 50.0052 36.6441 L 216.005 36.6441 L 216.005 174.644 L 50.0052 174.644 Z"/></clipPath></defs><defs><clipPath id="CLIP18"><path d=" M 50.0052 36.6441 L 216.005 36.6441 L 216.005 174.644 L 50.0052 174.644 Z"/></clipPath></defs><g clip-path="url(#CLIP0)"><g><g><path d=" M 50.5052 37.1441 L 143.624 37.1441 L 143.624 49.5254 L 50.5052 49.5254 Z" stroke="none" stroke-width="0" fill="#00AEEF" fill-opacity="1"/></g><g><path d=" M 101.01 37.1441 L 143.624 37.1441 L 143.624 49.5254 L 101.01 49.5254 Z" stroke="none" stroke-width="0" fill="#00AEEF" fill-opacity="1"/></g><g><path d=" M 143.624 37.1441 L 215.436 37.1441 L 215.436 49.5254 L 143.624 49.5254 Z" stroke="none" stroke-width="0" fill="#00AEEF" fill-opacity="1"/></g><g><path d=" M 50.5052 49.5254 L 101.01 49.5254 L 101.01 61.9068 L 50.5052 61.9068 Z" stroke="none" stroke-width="0" fill="#FFFFFF" fill-opacity="1"/></g><g><path d=" M 101.01 49.5254 L 143.624 49.5254 L 143.624 61.9068 L 101.01 61.9068 Z" stroke="none" stroke-width="0" fill="#FFFFFF" fill-opacity="1"/></g><g><path d=" M 143.624 49.5254 L 215.436 49.5254 L 215.436 61.9068 L 143.624 61.9068 Z" stroke="none" stroke-width="0" fill="#FFFFFF" fill-opacity="1"/></g><g><path d=" M 50.5052 61.9068 L 101.01 61.9068 L 101.01 74.2881 L 50.5052 74.2881 Z" stroke="none" stroke-width="0" fill="#FFFFFF" fill-opacity="1"/></g><g><path d=" M 101.01 61.9068 L 143.624 61.9068 L 143.624 74.2881 L 101.01 74.2881 Z" stroke="none" stroke-width="0" fill="#FFFFFF" fill-opacity="1"/></g><g><path d=" M 143.624 61.9068 L 215.436 61.9068 L 215.436 74.2881 L 143.624 74.2881 Z" stroke="none" stroke-width="0" fill="#FFFFFF" fill-opacity="1"/></g><g><path d=" M 50.5052 74.2881 L 101.01 74.2881 L 101.01 86.6695 L 50.5052 86.6695 Z" stroke="none" stroke-width="0" fill="#FFFFFF" fill-opacity="1"/></g><g><path d=" M 101.01 74.2881 L 143.624 74.2881 L 143.624 86.6695 L 101.01 86.6695 Z" stroke="none" stroke-width="0" fill="#FFFFFF" fill-opacity="1"/></g><g><path d=" M 143.624 74.2881 L 215.436 74.2881 L 215.436 86.6695 L 143.624 86.6695 Z" stroke="none" stroke-width="0" fill="#FFFFFF" fill-opacity="1"/></g><g><path d=" M 50.5052 86.6695 L 101.01 86.6695 L 101.01 99.0508 L 50.5052 99.0508 Z" stroke="none" stroke-width="0" fill="#FFFFFF" fill-opacity="1"/></g><g><path d=" M 101.01 86.6695 L 143.624 86.6695 L 143.624 99.0508 L 101.01 99.0508 Z" stroke="none" stroke-width="0" fill="#FFFFFF" fill-opacity="1"/></g><g><path d=" M 143.624 86.6695 L 215.436 86.6695 L 215.436 99.0508 L 143.624 99.0508 Z" stroke="none" stroke-width="0" fill="#FFFFFF" fill-opacity="1"/></g><g><path d=" M 50.5052 99.0508 L 101.01 99.0508 L 101.01 111.432 L 50.5052 111.432 Z" stroke="none" stroke-width="0" fill="#00AEEF" fill-opacity="1"/></g><g><path d=" M 101.01 99.0508 L 143.624 99.0508 L 143.624 111.432 L 101.01 111.432 Z" stroke="none" stroke-width="0" fill="#00AEEF" fill-opacity="1"/></g><g><path d=" M 143.624 99.0508 L 215.436 99.0508 L 215.436 111.432 L 143.624 111.432 Z" stroke="none" stroke-width="0" fill="#00AEEF" fill-opacity="1"/></g><g><path d=" M 50.5052 111.432 L 101.01 111.432 L 101.01 123.814 L 50.5052 123.814 Z" stroke="none" stroke-width="0" fill="#FFFFFF" fill-opacity="1"/></g><g><path d=" M 101.01 111.432 L 143.624 111.432 L 143.624 123.814 L 101.01 123.814 Z" stroke="none" stroke-width="0" fill="#FFFFFF" fill-opacity="1"/></g><g><path d=" M 143.624 111.432 L 215.436 111.432 L 215.436 123.814 L 143.624 123.814 Z" stroke="none" stroke-width="0" fill="#FFFFFF" fill-opacity="1"/></g><g><path d=" M 50.5052 123.814 L 143.624 123.814 L 143.624 136.195 L 50.5052 136.195 Z" stroke="none" stroke-width="0" fill="#FFFFFF" fill-opacity="1"/></g><g><path d=" M 101.01 123.814 L 143.624 123.814 L 143.624 136.195 L 101.01 136.195 Z" stroke="none" stroke-width="0" fill="#FFFFFF" fill-opacity="1"/></g><g><path d=" M 143.624 123.814 L 215.436 123.814 L 215.436 136.195 L 143.624 136.195 Z" stroke="none" stroke-width="0" fill="#FFFFFF" fill-opacity="1"/></g><g><path d=" M 50.5052 136.195 L 143.624 136.195 L 143.624 148.576 L 50.5052 148.576 Z" stroke="none" stroke-width="0" fill="#FFFFFF" fill-opacity="1"/></g><g><path d=" M 101.01 136.195 L 143.624 136.195 L 143.624 148.576 L 101.01 148.576 Z" stroke="none" stroke-width="0" fill="#FFFFFF" fill-opacity="1"/></g><g><path d=" M 143.624 136.195 L 215.436 136.195 L 215.436 148.576 L 143.624 148.576 Z" stroke="none" stroke-width="0" fill="#FFFFFF" fill-opacity="1"/></g><g><path d=" M 50.5052 148.576 L 101.01 148.576 L 101.01 160.958 L 50.5052 160.958 Z" stroke="none" stroke-width="0" fill="#FFFFFF" fill-opacity="1"/></g><g><path d=" M 101.01 148.576 L 143.624 148.576 L 143.624 160.958 L 101.01 160.958 Z" stroke="none" stroke-width="0" fill="#FFFFFF" fill-opacity="1"/></g><g><path d=" M 143.624 148.576 L 215.436 148.576 L 215.436 160.958 L 143.624 160.958 Z" stroke="none" stroke-width="0" fill="#FFFFFF" fill-opacity="1"/></g><g><path d=" M 50.5052 160.958 L 101.01 160.958 L 101.01 173.339 L 50.5052 173.339 Z" stroke="none" stroke-width="0" fill="#FFFFFF" fill-opacity="1"/></g><g><path d=" M 101.01 160.958 L 143.624 160.958 L 143.624 173.339 L 101.01 173.339 Z" stroke="none" stroke-width="0" fill="#FFFFFF" fill-opacity="1"/></g><g><path d=" M 143.624 160.958 L 215.436 160.958 L 215.436 173.339 L 143.624 173.339 Z" stroke="none" stroke-width="0" fill="#FFFFFF" fill-opacity="1"/></g></g></g><g clip-path="url(#CLIP1)"><g><g></g></g></g><g clip-path="url(#CLIP2)"><g><defs><clipPath id="CLIP3"><path d=" M 50.7552 37.3941 L 143.374 37.3941 L 143.374 49.2754 L 50.7552 49.2754 Z"/></clipPath></defs><defs><clipPath id="CLIP4"><path d=" M 50.7552 49.7754 L 100.76 49.7754 L 100.76 61.6568 L 50.7552 61.6568 Z"/></clipPath></defs><defs><clipPath id="CLIP5"><path d=" M 143.874 49.7754 L 215.186 49.7754 L 215.186 61.6568 L 143.874 61.6568 Z"/></clipPath></defs><defs><clipPath id="CLIP6"><path d=" M 50.7552 62.1568 L 100.76 62.1568 L 100.76 74.0381 L 50.7552 74.0381 Z"/></clipPath></defs><defs><clipPath id="CLIP7"><path d=" M 143.874 62.1568 L 215.186 62.1568 L 215.186 74.0381 L 143.874 74.0381 Z"/></clipPath></defs><defs><clipPath id="CLIP8"><path d=" M 50.7552 74.5381 L 100.76 74.5381 L 100.76 86.4195 L 50.7552 86.4195 Z"/></clipPath></defs><defs><clipPath id="CLIP9"><path d=" M 143.874 74.5381 L 215.186 74.5381 L 215.186 86.4195 L 143.874 86.4195 Z"/></clipPath></defs><defs><clipPath id="CLIP10"><path d=" M 50.7552 99.3008 L 100.76 99.3008 L 100.76 111.182 L 50.7552 111.182 Z"/></clipPath></defs><defs><clipPath id="CLIP11"><path d=" M 143.874 99.3008 L 215.186 99.3008 L 215.186 111.182 L 143.874 111.182 Z"/></clipPath></defs><defs><clipPath id="CLIP12"><path d=" M 50.7552 111.682 L 100.76 111.682 L 100.76 123.564 L 50.7552 123.564 Z"/></clipPath></defs><defs><clipPath id="CLIP13"><path d=" M 143.874 111.682 L 215.186 111.682 L 215.186 123.564 L 143.874 123.564 Z"/></clipPath></defs><defs><clipPath id="CLIP14"><path d=" M 50.7552 124.064 L 143.374 124.064 L 143.374 135.945 L 50.7552 135.945 Z"/></clipPath></defs><defs><clipPath id="CLIP15"><path d=" M 143.874 124.064 L 215.186 124.064 L 215.186 135.945 L 143.874 135.945 Z"/></clipPath></defs><defs><clipPath id="CLIP16"><path d=" M 50.7552 136.445 L 143.374 136.445 L 143.374 148.326 L 50.7552 148.326 Z"/></clipPath></defs><defs><clipPath id="CLIP17"><path d=" M 143.874 136.445 L 215.186 136.445 L 215.186 148.326 L 143.874 148.326 Z"/></clipPath></defs><g clip-path="url(#CLIP3)"><g><g transform="matrix(1,0,0,1,51.5574,47.4619)"><text fill="#FFFFFF" font-family="generis sans com" font-weight="700" font-size="9" x="1" y="-2.43">Market</text><text fill="#FFFFFF" font-family="generis sans com" font-weight="700" font-size="9" x="27.811" y="-2.43"></text><text fill="#FFFFFF" font-family="generis sans com" font-weight="700" font-size="9" x="30.124" y="-2.43">Analysis</text></g></g></g><g clip-path="url(#CLIP4)"><g><g transform="matrix(1,0,0,1,51.5574,60.9357)"><text fill="#000000" font-family="generis sans com" font-size="9" x="1" y="-2.43">Price</text></g></g></g><g clip-path="url(#CLIP5)"><g><g transform="matrix(1,0,0,1,190.82,60.9357)"><text fill="#000000" font-family="generis sans com" font-size="9" x="-1" y="-2.43">$</text><text fill="#000000" font-family="generis sans com" font-size="9" x="3.293" y="-2.43">8</text><text fill="#000000" font-family="generis sans com" font-size="9" x="7.586" y="-2.43">2</text><text fill="#000000" font-family="generis sans com" font-size="9" x="11.879" y="-2.43">.</text><text fill="#000000" font-family="generis sans com" font-size="9" x="14.03" y="-2.43">8</text><text fill="#000000" font-family="generis sans com" font-size="9" x="18.323" y="-2.43">7</text></g></g></g><g clip-path="url(#CLIP6)"><g><g transform="matrix(1,0,0,1,51.5574,73.317)"><text fill="#000000" font-family="generis sans com" font-size="9" x="1" y="-2.43">Target</text><text fill="#000000" font-family="generis sans com" font-size="9" x="22.987" y="-2.43"></text><text fill="#000000" font-family="generis sans com" font-size="9" x="25.138" y="-2.43">Price</text></g></g></g><g clip-path="url(#CLIP7)"><g><g transform="matrix(1,0,0,1,190.82,73.317)"><text fill="#000000" font-family="generis sans com" font-size="9" x="-1" y="-2.43">$</text><text fill="#000000" font-family="generis sans com" font-size="9" x="3.293" y="-2.43">8</text><text fill="#000000" font-family="generis sans com" font-size="9" x="7.586" y="-2.43">5</text><text fill="#000000" font-family="generis sans com" font-size="9" x="11.879" y="-2.43">.</text><text fill="#000000" font-family="generis sans com" font-size="9" x="14.03" y="-2.43">0</text><text fill="#000000" font-family="generis sans com" font-size="9" x="18.323" y="-2.43">0</text></g></g></g><g clip-path="url(#CLIP8)"><g><g transform="matrix(1,0,0,1,51.5574,85.6984)"><text fill="#000000" font-family="generis sans com" font-size="9" x="1" y="-2.43">Target</text><text fill="#000000" font-family="generis sans com" font-size="9" x="22.987" y="-2.43"></text><text fill="#000000" font-family="generis sans com" font-size="9" x="25.138" y="-2.43">Return</text></g></g></g><g clip-path="url(#CLIP9)"><g><g transform="matrix(1,0,0,1,195.113,85.6984)"><text fill="#000000" font-family="generis sans com" font-size="9" x="-1" y="-2.43">2</text><text fill="#000000" font-family="generis sans com" font-size="9" x="3.293" y="-2.43">.</text><text fill="#000000" font-family="generis sans com" font-size="9" x="5.444" y="-2.43">6</text><text fill="#000000" font-family="generis sans com" font-size="9" x="9.737" y="-2.43">%</text></g></g></g><g clip-path="url(#CLIP10)"><g><g transform="matrix(1,0,0,1,51.5574,109.369)"><text fill="#FFFFFF" font-family="generis sans com" font-weight="700" font-size="9" x="1" y="-2.43">Market</text><text fill="#FFFFFF" font-family="generis sans com" font-weight="700" font-size="9" x="27.811" y="-2.43"></text><text fill="#FFFFFF" font-family="generis sans com" font-weight="700" font-size="9" x="30.124" y="-2.43">Data</text></g></g></g><g clip-path="url(#CLIP11)"><g><g transform="matrix(1,0,0,1,175.79,110.461)"><text fill="#FFFFFF" font-family="generis sans com" font-size="9" x="-1" y="-2.43">0</text><text fill="#FFFFFF" font-family="generis sans com" font-size="9" x="3.293" y="-2.43">7</text><text fill="#FFFFFF" font-family="generis sans com" font-size="9" x="7.586" y="-2.43">/</text><text fill="#FFFFFF" font-family="generis sans com" font-size="9" x="9.737" y="-2.43">0</text><text fill="#FFFFFF" font-family="generis sans com" font-size="9" x="14.03" y="-2.43">7</text><text fill="#FFFFFF" font-family="generis sans com" font-size="9" x="18.323" y="-2.43">/</text><text fill="#FFFFFF" font-family="generis sans com" font-size="9" x="20.474" y="-2.43">2</text><text fill="#FFFFFF" font-family="generis sans com" font-size="9" x="24.767" y="-2.43">0</text><text fill="#FFFFFF" font-family="generis sans com" font-size="9" x="29.06" y="-2.43">1</text><text fill="#FFFFFF" font-family="generis sans com" font-size="9" x="33.353" y="-2.43">5</text></g></g></g><g clip-path="url(#CLIP12)"><g><g transform="matrix(1,0,0,1,51.5574,122.842)"><text fill="#000000" font-family="generis sans com" font-size="9" x="1" y="-2.43">52</text><text fill="#000000" font-family="generis sans com" font-size="9" x="9.586" y="-2.43"></text><text fill="#000000" font-family="generis sans com" font-size="9" x="11.737" y="-2.43">Wk</text><text fill="#000000" font-family="generis sans com" font-size="9" x="22.654" y="-2.43"></text><text fill="#000000" font-family="generis sans com" font-size="9" x="24.805" y="-2.43">Hi-Lo</text></g></g></g><g clip-path="url(#CLIP13)"><g><g transform="matrix(1,0,0,1,164.567,122.842)"><text fill="#000000" font-family="generis sans com" font-size="9" x="-1" y="-2.43">$104.37-82.37</text></g></g></g><g clip-path="url(#CLIP14)"><g><g transform="matrix(1,0,0,1,51.5574,135.224)"><text fill="#000000" font-family="generis sans com" font-size="9" x="1" y="-2.43">Market</text><text fill="#000000" font-family="generis sans com" font-size="9" x="25.498" y="-2.43"></text><text fill="#000000" font-family="generis sans com" font-size="9" x="27.649" y="-2.43">Cap</text><text fill="#000000" font-family="generis sans com" font-size="9" x="40.879" y="-2.43"></text><text fill="#000000" font-family="generis sans com" font-size="9" x="43.03" y="-2.43">(MM)</text></g></g></g><g clip-path="url(#CLIP15)"><g><g transform="matrix(1,0,0,1,180.083,135.224)"><text fill="#000000" font-family="generis sans com" font-size="9" x="-1" y="-2.43">3</text><text fill="#000000" font-family="generis sans com" font-size="9" x="3.293" y="-2.43">7</text><text fill="#000000" font-family="generis sans com" font-size="9" x="7.586" y="-2.43">7</text><text fill="#000000" font-family="generis sans com" font-size="9" x="11.879" y="-2.43">,</text><text fill="#000000" font-family="generis sans com" font-size="9" x="14.03" y="-2.43">8</text><text fill="#000000" font-family="generis sans com" font-size="9" x="18.323" y="-2.43">3</text><text fill="#000000" font-family="generis sans com" font-size="9" x="22.616" y="-2.43">2</text><text fill="#000000" font-family="generis sans com" font-size="9" x="26.909" y="-2.43">.</text><text fill="#000000" font-family="generis sans com" font-size="9" x="29.06" y="-2.43">5</text></g></g></g><g clip-path="url(#CLIP16)"><g><g transform="matrix(1,0,0,1,51.5574,147.605)"><text fill="#000000" font-family="generis sans com" font-size="9" x="1" y="-2.43">Shares</text><text fill="#000000" font-family="generis sans com" font-size="9" x="24.31" y="-2.43"></text><text fill="#000000" font-family="generis sans com" font-size="9" x="26.461" y="-2.43">Out</text><text fill="#000000" font-family="generis sans com" font-size="9" x="39.025" y="-2.43"></text><text fill="#000000" font-family="generis sans com" font-size="9" x="41.176" y="-2.43">(MM)</text></g></g></g><g clip-path="url(#CLIP17)"><g><g transform="matrix(1,0,0,1,188.669,147.605)"><text fill="#000000" font-family="generis sans com" font-size="9" x="-1" y="-2.43">4</text><text fill="#000000" font-family="generis sans com" font-size="9" x="3.293" y="-2.43">,</text><text fill="#000000" font-family="generis sans com" font-size="9" x="5.444" y="-2.43">5</text><text fill="#000000" font-family="generis sans com" font-size="9" x="9.737" y="-2.43">5</text><text fill="#000000" font-family="generis sans com" font-size="9" x="14.03" y="-2.43">9</text><text fill="#000000" font-family="generis sans com" font-size="9" x="18.323" y="-2.43">.</text><text fill="#000000" font-family="generis sans com" font-size="9" x="20.474" y="-2.43">3</text></g></g></g></g></g><g clip-path="url(#CLIP18)"><g></g></g></g><g></g><g></g></g></g></svg>